<?xml version="1.0" encoding="UTF-8"?>
<svg id="Layer_1" data-name="Layer 1" xmlns="http://www.w3.org/2000/svg" viewBox="0 0 475 407.53">
  <defs>
    <style>
      .cls-1 {
        fill: #010101;
      }
    </style>
  </defs>
  <path class="cls-1" d="m.67,16.96C.2,26.23-.12,80.09.04,136.63c.31,111.5.63,116.37,8.95,143.7,16.33,53.08,47.74,92.03,91.71,113.7,28.42,14.13,22.3,13.51,137.41,13.51,93.91,0,101.92-.16,110.72-2.83,14.76-4.55,27.48-9.27,28.27-10.52.31-.47,5.03-3.3,10.52-6.12,5.5-2.67,12.72-7.54,16.18-10.84,3.45-3.14,8.17-7.22,10.36-8.95,11.15-8.79,32.67-37.85,40.52-54.97,7.85-16.65,12.72-30.47,16.18-45.54,3.45-15.55,3.45-16.8,4.08-141.81.16-69.26,0-125.95-.63-125.95-1.41,0-78.84,39.73-88.42,45.39-4.71,2.83-15.7,8.64-24.34,13.03-19.47,9.58-21.36,11.31-21.36,18.06v5.18h-196.62l-10.52-9.11c-5.65-5.03-16.33-12.25-23.71-16.02-7.38-3.61-17.9-9.42-23.56-12.56-5.65-3.3-14.45-8.01-19.63-10.52C57.2,29.05,29.41,14.45,15.9,7.22c-3.45-1.88-8.17-4.24-10.36-5.18L1.45.31l-.79,16.65Zm191.44,199.45c-1.41,21.36-9.42,38.32-20.57,43.5-16.96,8.01-29.84,8.95-45.39,3.77-18.53-6.12-25.6-17.75-27.17-44.29l-1.1-16.8h95.17l-.94,13.82Zm185.63,4.71c-.63,17.59-.94,19-5.18,25.13-6.91,9.89-19.16,16.33-33.14,17.27-20.89,1.26-36.12-6.28-45.7-22.61-3.45-5.81-6.91-23.4-6.91-35.65,0-2.51,3.14-2.67,45.7-2.67h45.7l-.47,18.53Zm-112.91,85.12v25.13h-51.82v-50.25h51.82v25.13Z"/>
</svg>